# xmcd
#
# Track frame offsets: 
#        150
#        3913
#        15774
#        32388
#        50534
#        64959
#        81254
#        99300
#        118551
#        132695
#        148164
#        165484
#
# Disc length: 2532 seconds
#
# Revision: 0
# Processed by: cddbd v1.5.2PL0 Copyright (c) Steve Scherf et al.
# Submitted via: ExactAudioCopy v1.0b3
#
DISCID=9309e20c
DTITLE=Jamey Johnson - They Call Me Country
DYEAR=2002
DGENRE=Country
TTITLE0=Letter To Mama
TTITLE1=Hard Times
TTITLE2=They Call Me Country
TTITLE3=Old Faded Diamond
TTITLE4=The Beer Song
TTITLE5=Betty On The Line
TTITLE6=Sweet Beulah Land
TTITLE7=Forty Years Ago
TTITLE8=Is It Raining
TTITLE9=The Rebel
TTITLE10=Old Maple Guitar
TTITLE11=Alabama
EXTD=
EXTT0=
EXTT1=
EXTT2=
EXTT3=
EXTT4=
EXTT5=
EXTT6=
EXTT7=
EXTT8=
EXTT9=
EXTT10=
EXTT11=
PLAYORDER=
